<svg width="28" height="29" viewBox="0 0 28 29" fill="none" xmlns="http://www.w3.org/2000/svg">
<path d="M24.5001 8.83H20.5626V6.6425C20.5626 3.02383 17.6204 0.0800018 14.0001 0.0800018C10.3797 0.0800018 7.43756 3.02383 7.43756 6.6425V8.83H3.50006C2.53373 8.83 1.75006 9.61203 1.75006 10.58V23.705C1.75006 26.1222 3.70897 28.08 6.12506 28.08H21.8751C24.2912 28.08 26.2501 26.1211 26.2501 23.705V10.58C26.2501 9.61203 25.468 8.83 24.5001 8.83ZM10.0626 6.6425C10.0626 4.47141 11.829 2.705 14.0001 2.705C16.1712 2.705 17.9376 4.47141 17.9376 6.6425V8.83H10.0626V6.6425ZM23.6251 23.705C23.6251 24.6697 22.8397 25.455 21.8751 25.455H6.12506C5.16037 25.455 4.37506 24.6697 4.37506 23.705V11.455H7.43756V14.5175C7.43756 15.2448 8.02819 15.83 8.75006 15.83C9.47194 15.83 10.0626 15.2421 10.0626 14.5175V11.455H17.9376V14.5175C17.9376 15.2448 18.5282 15.83 19.2501 15.83C19.9719 15.83 20.5626 15.2421 20.5626 14.5175V11.455H23.6251V23.705Z" fill="#222222"/>
</svg>
