<svg xmlns="http://www.w3.org/2000/svg" viewBox="0 0 256 256" style="enable-background:new 0 0 256 256" xml:space="preserve"><style>.st0{fill:#f98fa6}.st1{fill:#fc657e}.st5{fill:#f5c84c}.st8{fill:#edf4fc}.st13{fill:#e1fbff}.st25{fill:#d1856d}</style><g id="Layer_59"><path class="st13" d="m186.731 211.092-3.394-5.005a51.317 51.317 0 0 1-9.094.823c-28.242 0-51.137-22.895-51.137-51.137 0-9.983 2.863-19.294 7.811-27.163a28.092 28.092 0 0 1-3.66-13.854V48.894H94.821v65.862a28.087 28.087 0 0 1-4.841 15.765l-54.633 80.571c-12.23 18.037.69 42.408 22.482 42.408h106.419c21.793 0 34.713-24.372 22.483-42.408z"/><path class="st1" d="m186.731 211.092-3.394-5.005a51.317 51.317 0 0 1-9.094.823c-18.589 0-34.859-9.921-43.811-24.755-9.09.677-9.513 8.698-19.402 8.698-10.328 0-10.328-8.749-20.656-8.749-10.325 0-10.325 8.749-20.649 8.749-8.183 0-9.903-5.475-15.396-7.754l-18.982 27.994c-12.23 18.037.69 42.408 22.482 42.408h106.419c21.793-.001 34.713-24.373 22.483-42.409z"/><circle class="st0" cx="83.5" cy="227.5" r="6.5"/><circle class="st0" cx="111" cy="212.5" r="10"/><path class="st5" d="M197.262 110.113c.006 2.768-.501 5.91-1.686 9.481a5.33 5.33 0 0 0-.031 3.177c.918 3.127 2.014 10.126-5.358 12.89-5.295 1.985-6.949 3.607-7.366 4.664-.337.855-1.238 1.353-2.157 1.353h-12.843c-.919 0-1.82-.498-2.157-1.353-.417-1.057-2.072-2.679-7.366-4.664-7.372-2.764-6.276-9.763-5.358-12.89.305-1.041.311-2.148-.031-3.177-1.185-3.571-1.692-6.713-1.686-9.481-16.676 8.424-28.118 25.7-28.118 45.66 0 28.242 22.895 51.137 51.137 51.137s51.137-22.895 51.137-51.137c.002-19.96-11.441-37.236-28.117-45.66z"/><path class="st8" d="M186.271 137.382c-2.276 1.207-3.161 2.211-3.45 2.943-.337.855-1.238 1.353-2.157 1.353h-12.843c-.919 0-1.82-.498-2.157-1.353-.289-.732-1.174-1.736-3.45-2.943 0 .038-.005.074-.005.111v7.166c0 4.648 3.803 8.451 8.451 8.451h7.166c4.648 0 8.451-3.803 8.451-8.451v-7.166c0-.037-.005-.074-.006-.111z"/><path class="st8" d="M203.267 168.968c-2.826-1.577-6.546-.59-8.217 2.182a6.071 6.071 0 0 0-.593 1.362l-36.159-20.876c.306-.33.59-.685.824-1.091a6.119 6.119 0 0 0-2.319-8.403c-2.826-1.577-6.546-.59-8.217 2.182a6.085 6.085 0 0 0-.808 4.097 2.89 2.89 0 0 1-1.815 3.144 6.09 6.09 0 0 0-3.144 2.748c-1.564 2.833-.56 6.548 2.219 8.207a6.117 6.117 0 0 0 8.436-2.193c.234-.406.4-.83.532-1.259l36.159 20.876a6.055 6.055 0 0 0-.883 1.194c-1.564 2.833-.56 6.548 2.219 8.207a6.117 6.117 0 0 0 9.168-6.278 2.764 2.764 0 0 1 1.744-3.02 6.089 6.089 0 0 0 3.171-2.677 6.115 6.115 0 0 0-2.317-8.402z"/><path class="st8" d="M205.668 154.313a6.09 6.09 0 0 0-3.144-2.748 2.89 2.89 0 0 1-1.815-3.144 6.086 6.086 0 0 0-.808-4.097c-1.671-2.771-5.391-3.759-8.217-2.181a6.118 6.118 0 0 0-2.319 8.402 6.1 6.1 0 0 0 .824 1.091l-15.945 9.206 8.582 4.955 11.655-6.729c.133.429.298.854.532 1.259a6.117 6.117 0 0 0 8.436 2.193c2.778-1.659 3.783-5.374 2.219-8.207zM158.321 179.944l15.922-9.193-8.582-4.955-11.631 6.716a6.071 6.071 0 0 0-.593-1.362c-1.671-2.771-5.391-3.759-8.217-2.182a6.119 6.119 0 0 0 .853 11.08 2.766 2.766 0 0 1 1.744 3.02 6.12 6.12 0 0 0 9.169 6.278c2.779-1.659 3.784-5.374 2.219-8.207a6.106 6.106 0 0 0-.884-1.195zM195.577 119.594c4.787-14.432-1.422-21.892-8.353-25.719-8.033-4.436-17.929-4.436-25.962 0-6.931 3.827-13.139 11.287-8.352 25.719a5.33 5.33 0 0 1 .031 3.177c-.918 3.126-2.014 10.125 5.358 12.89 5.295 1.985 6.949 3.607 7.366 4.664.337.855 1.238 1.353 2.157 1.353h12.843c.919 0 1.82-.498 2.157-1.353.417-1.057 2.072-2.679 7.366-4.664 7.372-2.765 6.276-9.764 5.358-12.89-.305-1.041-.311-2.148.031-3.177z"/><path class="st1" d="M189.045 119.909c-.057-1.757-1.868-2.898-3.475-2.185l-5.776 2.567a2.469 2.469 0 0 0-1.235 3.307c1.005 2.133 2.979 4.767 6.364 3.639 3.564-1.188 4.209-4.638 4.122-7.328zM168.328 120.292l-5.777-2.567c-1.606-.714-3.417.428-3.475 2.185-.087 2.69.558 6.14 4.122 7.329 3.385 1.128 5.36-1.506 6.364-3.639a2.468 2.468 0 0 0-1.234-3.308z"/><path class="st25" d="M99.62 48.894c.101 6.225 5.171 11.242 11.419 11.242s11.318-5.017 11.419-11.242H99.62zM122.394 11.5h-22.71a5.587 5.587 0 0 0-5.556 6.173l1.349 12.778h31.124l1.349-12.778a5.587 5.587 0 0 0-5.556-6.173z"/><path class="st13" d="M130.879 30.451h-39.68a9.221 9.221 0 0 0 0 18.442h39.68c5.093 0 9.221-4.128 9.221-9.221s-4.128-9.221-9.221-9.221z"/><path class="st5" d="M167.983 22.697c-4.498-.838-8.043-4.31-8.898-8.717a.2.2 0 0 0-.395 0c-.855 4.406-4.4 7.879-8.898 8.717a.195.195 0 0 0 0 .387c4.498.838 8.042 4.31 8.898 8.717a.2.2 0 0 0 .395 0c.855-4.406 4.4-7.879 8.898-8.717a.195.195 0 0 0 0-.387z"/><path class="st1" d="M218.887 214.748c-3.004-.56-5.372-2.879-5.943-5.822a.134.134 0 0 0-.264 0c-.571 2.943-2.939 5.263-5.943 5.822a.13.13 0 0 0 0 .258c3.004.56 5.372 2.879 5.943 5.822a.134.134 0 0 0 .264 0c.571-2.943 2.939-5.263 5.943-5.822a.13.13 0 0 0 0-.258z"/><path d="M57.694 143.302h-2.329v-2.33a3.156 3.156 0 1 0-6.314 0v2.33h-2.33a3.156 3.156 0 1 0 0 6.314h2.33v2.33a3.156 3.156 0 1 0 6.314 0v-2.33h2.329a3.156 3.156 0 1 0 0-6.314z" style="fill:#70d6f9"/><circle cx="141.999" cy="3.377" r="3.377" style="fill:#87d147"/><circle class="st5" cx="38.999" cy="169.377" r="3.377"/><path d="M132.829 126.901a25.67 25.67 0 0 1-3.072-12.146V49.563a2.5 2.5 0 1 0-5 0v65.193c0 5.046 1.27 10.066 3.672 14.519a2.498 2.498 0 0 0 3.387 1.013 2.5 2.5 0 0 0 1.013-3.387z"/><path d="m188.801 209.688-2.95-4.351a2.501 2.501 0 0 0-4.139 2.807l2.95 4.351c5.215 7.691 5.729 17.185 1.377 25.395-4.353 8.209-12.498 13.11-21.79 13.11H57.829c-9.292 0-17.438-4.901-21.79-13.11-4.353-8.21-3.838-17.703 1.377-25.395l54.633-80.571a30.475 30.475 0 0 0 5.271-17.168V49.542a2.5 2.5 0 1 0-5 0v65.214a25.488 25.488 0 0 1-4.41 14.361l-54.633 80.571c-6.271 9.251-6.891 20.669-1.656 30.543C36.856 250.105 46.653 256 57.829 256h106.42c11.176 0 20.973-5.895 26.208-15.769 5.234-9.874 4.615-21.292-1.656-30.543z"/><path d="M130.879 27.951h-39.68c-6.463 0-11.722 5.258-11.722 11.721s5.259 11.722 11.722 11.722h39.68c6.463 0 11.722-5.259 11.722-11.722s-5.259-11.721-11.722-11.721zm0 18.443h-39.68c-3.706 0-6.722-3.016-6.722-6.722s3.016-6.721 6.722-6.721h39.68c3.706 0 6.722 3.015 6.722 6.721s-3.016 6.722-6.722 6.722z"/><path d="M122.653 47.383a2.493 2.493 0 0 0-2.739 2.235 8.891 8.891 0 0 1-8.875 8.017 8.892 8.892 0 0 1-8.875-8.014 2.5 2.5 0 1 0-4.974.504 13.879 13.879 0 0 0 13.85 12.51c7.174 0 13.128-5.38 13.85-12.513a2.502 2.502 0 0 0-2.237-2.739zM128.405 11.678A8.097 8.097 0 0 0 122.394 9H99.685a8.1 8.1 0 0 0-6.012 2.678 8.098 8.098 0 0 0-2.03 6.258L92.9 29.857a2.501 2.501 0 0 0 4.973-.526L96.615 17.41a3.048 3.048 0 0 1 .774-2.388A3.054 3.054 0 0 1 99.685 14h22.709c.887 0 1.701.363 2.295 1.022.593.658.868 1.507.774 2.388l-1.253 11.877a2.5 2.5 0 0 0 2.224 2.749 2.488 2.488 0 0 0 2.749-2.224l1.253-11.877a8.097 8.097 0 0 0-2.031-6.257zM132.165 181.918a2.493 2.493 0 0 0-2.791-2.17c-4.612.577-7.278 2.834-9.631 4.824-2.495 2.112-4.466 3.78-8.713 3.78s-6.218-1.669-8.712-3.782c-2.749-2.328-5.863-4.967-11.944-4.967-6.079 0-9.193 2.639-11.941 4.968-2.493 2.112-4.463 3.781-8.708 3.781-4.254 0-6.231-1.667-8.735-3.777-1.411-1.189-2.871-2.419-4.802-3.377a2.502 2.502 0 0 0-2.221 4.481c1.391.689 2.561 1.676 3.8 2.72 2.755 2.322 5.878 4.954 11.958 4.954 6.079 0 9.192-2.639 11.94-4.967 2.493-2.113 4.463-3.782 8.709-3.782 4.247 0 6.218 1.669 8.712 3.782 2.749 2.328 5.863 4.967 11.944 4.967 6.078 0 9.194-2.637 11.943-4.964 2.084-1.764 3.884-3.286 7.021-3.68a2.5 2.5 0 0 0 2.171-2.791zM174.093 129.551a2.5 2.5 0 0 0-2.5 2.5v1.203a2.5 2.5 0 1 0 5 0v-1.203a2.5 2.5 0 0 0-2.5-2.5z"/><path d="M186.277 135.594a2.5 2.5 0 0 0-2.5 2.5v6.565c0 3.281-2.67 5.95-5.951 5.95h-7.165a5.957 5.957 0 0 1-5.951-5.95v-6.628a2.5 2.5 0 1 0-5 0v6.628c0 6.038 4.913 10.95 10.951 10.95h7.165c6.038 0 10.951-4.912 10.951-10.95v-6.565a2.5 2.5 0 0 0-2.5-2.5zM189.212 115.77a4.958 4.958 0 0 0-4.657-.329l-5.776 2.567a4.939 4.939 0 0 0-2.643 2.811 4.927 4.927 0 0 0 .161 3.846c1.632 3.463 4.177 5.343 7.067 5.343a7.43 7.43 0 0 0 2.349-.397c3.922-1.307 5.992-4.78 5.831-9.781v-.001a4.975 4.975 0 0 0-2.332-4.059zm-5.08 9.096c-.57.188-1.91.641-3.322-2.29l5.736-2.592v.007c.13 4.027-1.784 4.665-2.414 4.875zM171.986 120.818a4.936 4.936 0 0 0-2.643-2.811l-5.776-2.567a4.974 4.974 0 0 0-6.989 4.388c-.161 5.001 1.909 8.474 5.83 9.78a7.386 7.386 0 0 0 2.35.398c2.891 0 5.436-1.881 7.067-5.344a4.922 4.922 0 0 0 .161-3.844zm-7.997 4.047c-.627-.209-2.532-.844-2.414-4.839l5.727 2.507c-1.4 2.971-2.739 2.525-3.313 2.332z"/><path d="M208.595 172.021a8.56 8.56 0 0 0-4.11-5.236c-3.726-2.076-8.464-1.037-11.022 2.267l-31.668-18.283a8.542 8.542 0 0 0 .338-5.572 8.556 8.556 0 0 0-4.109-5.235c-4.012-2.238-9.204-.861-11.577 3.073a8.627 8.627 0 0 0-1.138 5.771.388.388 0 0 1-.247.429 8.632 8.632 0 0 0-4.43 3.872c-2.22 4.021-.817 9.208 3.126 11.563a8.565 8.565 0 0 0 6.59.941 8.544 8.544 0 0 0 4.656-3.078l31.668 18.283c-1.583 3.868-.111 8.493 3.55 10.679a8.556 8.556 0 0 0 6.588.943 8.56 8.56 0 0 0 5.295-4.032 8.628 8.628 0 0 0 1.031-5.757c-.015-.087.063-.222.146-.253a8.627 8.627 0 0 0 4.47-3.772 8.57 8.57 0 0 0 .843-6.603zm-5.174 4.1a3.574 3.574 0 0 1-1.874 1.582 5.232 5.232 0 0 0-3.341 5.784 3.568 3.568 0 0 1-.433 2.415 3.592 3.592 0 0 1-2.224 1.693 3.603 3.603 0 0 1-2.767-.396c-1.627-.972-2.229-3.193-1.313-4.852.125-.227.292-.449.527-.702a2.5 2.5 0 0 0-.582-3.866l-36.159-20.876a2.49 2.49 0 0 0-2.162-.163 2.5 2.5 0 0 0-1.476 1.588 3.626 3.626 0 0 1-.31.749 3.588 3.588 0 0 1-2.223 1.692 3.604 3.604 0 0 1-2.767-.396c-1.628-.972-2.229-3.194-1.313-4.854a3.575 3.575 0 0 1 1.857-1.625 5.361 5.361 0 0 0 3.384-5.859 3.566 3.566 0 0 1 .478-2.421c.979-1.623 3.204-2.21 4.859-1.29a3.594 3.594 0 0 1 1.726 2.199c.26.94.134 1.925-.354 2.771a3.69 3.69 0 0 1-.493.642 2.497 2.497 0 0 0 .584 3.863l36.159 20.876a2.502 2.502 0 0 0 3.639-1.429c.101-.325.213-.589.346-.809.979-1.621 3.204-2.21 4.856-1.289a3.598 3.598 0 0 1 1.727 2.199 3.587 3.587 0 0 1-.351 2.774z"/><path d="M207.856 153.105a8.625 8.625 0 0 0-4.43-3.873.39.39 0 0 1-.248-.427 8.61 8.61 0 0 0-1.138-5.772c-2.371-3.933-7.563-5.313-11.575-3.073a8.555 8.555 0 0 0-4.11 5.234 8.544 8.544 0 0 0 .337 5.573l-13.185 7.612a2.5 2.5 0 0 0 2.5 4.33l15.431-8.909c.658-.38 1.107-1.038 1.222-1.789s-.119-1.514-.635-2.071a3.637 3.637 0 0 1-.496-.646 3.595 3.595 0 0 1-.354-2.771 3.59 3.59 0 0 1 1.727-2.199c1.656-.921 3.879-.331 4.858 1.291.562.931.57 1.83.479 2.42a5.356 5.356 0 0 0 3.383 5.86c.799.309 1.44.87 1.857 1.626.916 1.658.315 3.879-1.313 4.851-.842.5-1.824.641-2.768.396a3.591 3.591 0 0 1-2.22-1.688 3.687 3.687 0 0 1-.312-.753 2.499 2.499 0 0 0-3.639-1.427l-11.141 6.433a2.5 2.5 0 0 0 2.5 4.33l8.894-5.136a8.542 8.542 0 0 0 4.659 3.079c2.25.586 4.59.251 6.588-.942 3.947-2.351 5.35-7.538 3.129-11.559zM175.91 169.789a2.501 2.501 0 0 0-3.415-.915l-15.424 8.905a2.501 2.501 0 0 0-.584 3.864c.237.256.404.479.528.704.916 1.658.315 3.88-1.312 4.852a3.599 3.599 0 0 1-2.768.396 3.598 3.598 0 0 1-2.223-1.693 3.57 3.57 0 0 1-.434-2.413c.418-2.44-1.019-4.928-3.341-5.786a3.571 3.571 0 0 1-1.873-1.582 3.591 3.591 0 0 1-.354-2.771 3.59 3.59 0 0 1 1.726-2.198c1.655-.924 3.882-.332 4.86 1.292.131.218.241.475.345.81a2.502 2.502 0 0 0 3.638 1.424l11.049-6.379a2.5 2.5 0 0 0-2.5-4.33l-8.805 5.083c-2.558-3.304-7.3-4.342-11.023-2.266a8.56 8.56 0 0 0-4.109 5.236 8.557 8.557 0 0 0 .845 6.6 8.623 8.623 0 0 0 4.469 3.771c.084.031.162.166.147.253a8.621 8.621 0 0 0 1.031 5.757 8.554 8.554 0 0 0 5.293 4.032 8.56 8.56 0 0 0 6.591-.943c3.66-2.187 5.131-6.813 3.548-10.679l13.18-7.609a2.5 2.5 0 0 0 .915-3.415z"/><path d="M198.39 107.881a2.494 2.494 0 0 0-2.439.104 2.504 2.504 0 0 0-1.188 2.133c.006 2.632-.519 5.555-1.558 8.688-.497 1.493-.517 3.108-.058 4.67 1.476 5.024.184 8.337-3.838 9.845-4.956 1.858-7.738 3.726-8.716 5.857l-12.702-.003c-.979-2.13-3.761-3.997-8.715-5.854-4.021-1.508-5.312-4.82-3.838-9.845.459-1.561.439-3.175-.056-4.669-1.041-3.137-1.565-6.061-1.559-8.688a2.5 2.5 0 0 0-3.627-2.238c-18.191 9.189-29.491 27.54-29.491 47.892 0 29.575 24.062 53.637 53.637 53.637 29.576 0 53.638-24.062 53.638-53.637.001-20.352-11.299-38.703-29.49-47.892zm-24.147 96.528c-26.818 0-48.637-21.818-48.637-48.637 0-17.183 8.884-32.793 23.425-41.59.294 1.987.797 4.06 1.506 6.197.174.523.175 1.106.005 1.688-2.21 7.533.361 13.49 6.879 15.935 5.164 1.937 5.916 3.24 5.918 3.24.692 1.756 2.494 2.936 4.483 2.936h12.843c1.988 0 3.79-1.18 4.472-2.911.007-.013.743-1.32 5.929-3.265 6.52-2.444 9.092-8.401 6.879-15.935a2.82 2.82 0 0 1 .006-1.687c.709-2.138 1.212-4.21 1.505-6.198 14.541 8.797 23.426 24.407 23.426 41.59-.001 26.819-21.819 48.637-48.639 48.637z"/><path d="M197.949 120.382c4.237-12.775.857-22.967-9.517-28.696-8.751-4.833-19.626-4.833-28.379 0-10.374 5.729-13.754 15.92-9.517 28.694.174.523.175 1.106.004 1.688-2.209 7.533.363 13.49 6.88 15.935 5.164 1.937 5.916 3.24 5.918 3.24.692 1.756 2.494 2.936 4.483 2.936h12.843c1.988 0 3.79-1.18 4.472-2.911.007-.013.743-1.32 5.929-3.265 6.52-2.444 9.091-8.401 6.879-15.937-.17-.58-.168-1.162.005-1.684zm-4.802 3.093c1.475 5.025.184 8.338-3.838 9.846-4.956 1.858-7.738 3.726-8.716 5.857l-12.702-.003c-.979-2.13-3.761-3.997-8.715-5.854-4.021-1.508-5.312-4.82-3.838-9.845.459-1.561.439-3.175-.056-4.669-3.493-10.529-1.074-18.181 7.188-22.744 7.261-4.009 16.283-4.011 23.544 0 8.262 4.563 10.68 12.215 7.189 22.743-.495 1.493-.515 3.108-.056 4.669zM83.5 218.5c-4.963 0-9 4.037-9 9s4.037 9 9 9 9-4.037 9-9-4.037-9-9-9zm0 13c-2.206 0-4-1.794-4-4s1.794-4 4-4 4 1.794 4 4-1.794 4-4 4zM111 200c-6.893 0-12.5 5.607-12.5 12.5S104.107 225 111 225s12.5-5.607 12.5-12.5S117.893 200 111 200zm0 20c-4.136 0-7.5-3.364-7.5-7.5s3.364-7.5 7.5-7.5 7.5 3.364 7.5 7.5-3.364 7.5-7.5 7.5z"/></g></svg>