<svg width="21" height="21" viewBox="0 0 21 21" fill="none" xmlns="http://www.w3.org/2000/svg">
<path d="M20.1414 18.4984L14.9071 13.2641C16.0399 11.8773 16.6649 10.1313 16.6649 8.22501C16.6649 3.73672 13.027 0.100006 8.53986 0.100006C4.05275 0.100006 0.450012 3.7379 0.450012 8.22501C0.450012 12.7121 4.08752 16.35 8.53986 16.35C10.4457 16.35 12.1942 15.6895 13.5789 14.5906L18.8133 19.825C19.0321 20.0102 19.2742 20.1 19.5125 20.1C19.7508 20.1 19.9922 20.0084 20.1754 19.8254C20.5399 19.4594 20.5399 18.8656 20.1414 18.4984ZM2.32502 8.22501C2.32502 4.77891 5.12893 1.97501 8.57502 1.97501C12.0211 1.97501 14.825 4.77891 14.825 8.22501C14.825 11.6711 12.0211 14.475 8.57502 14.475C5.12893 14.475 2.32502 11.6703 2.32502 8.22501Z" fill="#333333"/>
</svg>
