<svg width="22" height="24" viewBox="0 0 22 24" fill="none" xmlns="http://www.w3.org/2000/svg">
<path d="M15.545 16.705H10.295C4.97942 16.705 0.670044 21.0144 0.670044 26.33C0.670044 27.2963 1.45372 28.08 2.42004 28.08H23.42C24.3864 28.08 25.17 27.2963 25.17 26.33C25.17 21.0144 20.8607 16.705 15.545 16.705ZM3.34918 25.455C3.78122 22.0042 6.72942 19.33 10.295 19.33H15.545C19.1085 19.33 22.0583 22.007 22.4904 25.455H3.34918ZM12.92 14.08C16.7859 14.08 19.92 10.9459 19.92 7.08C19.92 3.21414 16.7859 0.0800018 12.92 0.0800018C9.05418 0.0800018 5.92004 3.21414 5.92004 7.08C5.92004 10.9464 9.05364 14.08 12.92 14.08ZM12.92 2.705C15.3323 2.705 17.295 4.66774 17.295 7.08C17.295 9.49227 15.3323 11.455 12.92 11.455C10.5078 11.455 8.54504 9.49172 8.54504 7.08C8.54504 4.66774 10.5083 2.705 12.92 2.705Z" fill="#222222"/>
</svg>
